<?xml version="1.0" standalone="no"?><!DOCTYPE svg PUBLIC "-//W3C//DTD SVG 1.1//EN" "http://www.w3.org/Graphics/SVG/1.1/DTD/svg11.dtd"><svg t="1597479567005" class="icon" viewBox="0 0 1024 1024" version="1.1" xmlns="http://www.w3.org/2000/svg" p-id="2707" width="200" height="200" xmlns:xlink="http://www.w3.org/1999/xlink"><defs><style type="text/css"></style></defs><path d="M486.642347 1.365333c0.853333-2.389333 3.584-0.853333 3.584-0.853333C546.11968 41.557333 619.33568 168.106667 619.33568 315.136c0 158.890667-260.437333 305.322667-241.322667 497.152 15.701333 158.122667 138.496 233.557333 38.741334 206.08-178.261333-47.957333-353.28-310.272-165.034667-549.546667 81.578667-103.765333 229.973333-180.906667 234.581333-464.896z m226.218666 405.077334c1.28-1.194667 2.986667 0 4.266667 0 39.424 31.061333 150.442667 137.728 134.656 306.432-14.933333 161.28-143.189333 239.104-167.765333 252.330666l-3.84 1.962667c-79.701333 36.608-47.786667 72.448-79.701334 36.608-54.869333-61.696-152.490667-176.64 18.773334-414.805333 50.517333-70.229333 90.453333-146.773333 93.610666-182.528z" p-id="2708" fill="#409eff"></path></svg>